# xmcd
#
# Track frame offsets: 
#        150
#        15251
#        29383
#        43492
#        58508
#        73334
#        84692
#        98291
#        110961
#        125930
#
# Disc length: 1866 seconds
#
# Revision: 0
# Processed by: cddbd v1.5.2PL0 Copyright (c) Steve Scherf et al.
# Submitted via: ExactAudioCopy v1.0b1
#
DISCID=8d07480a
DTITLE=Billy Walker - Stars Of The Grand Ole Opry
DYEAR=1981
DGENRE=Country
TTITLE0=Let's Just Be Lovers (And Leave Love Alone)
TTITLE1=If You're Saving Part Of You For Someone Else
TTITLE2=When You Lay Your Body Down
TTITLE3=Won't Somebody Tell Me Why I Ain't Got You
TTITLE4=Love Is Such a Sweet Surprise
TTITLE5=Charlie's Shoes
TTITLE6=Cross The Brazos At Waco
TTITLE7=She Don't Make Me Cry
TTITLE8=Till I Drink Milwaukee Dry
TTITLE9=Honky Tonkitis
EXTD=
EXTT0=
EXTT1=
EXTT2=
EXTT3=
EXTT4=
EXTT5=
EXTT6=
EXTT7=
EXTT8=
EXTT9=
PLAYORDER=
